<svg version="1.1" xmlns="http://www.w3.org/2000/svg" viewBox="0 0 1266.3987373968316 581.0004309956779" width="1266.3987373968316" height="581.0004309956779" filter="invert(93%) hue-rotate(180deg)">
  <!-- svg-source:excalidraw -->
  
  <defs>
    <style class="style-fonts">
      @font-face {
        font-family: "Virgil";
        src: url("https://excalidraw.com/Virgil.woff2");
      }
      @font-face {
        font-family: "Cascadia";
        src: url("https://excalidraw.com/Cascadia.woff2");
      }
      @font-face {
        font-family: "Assistant";
        src: url("https://excalidraw.com/Assistant-Regular.woff2");
      }
    </style>
    
  </defs>
  <rect x="0" y="0" width="1266.3987373968316" height="581.0004309956779" fill="#ffffff"></rect><g stroke-linecap="round" transform="translate(379.5121697480664 287.33452290625314) rotate(0 80.86966677987982 141.8329540447124)"><path d="M32 0 C54.29 -1.24, 73.42 -1.93, 129.74 0 M32 0 C56.18 -0.46, 80.68 0.02, 129.74 0 M129.74 0 C151.71 1.04, 162.98 8.72, 161.74 32 M129.74 0 C151.82 0.62, 160.01 10.63, 161.74 32 M161.74 32 C163.7 94.54, 161.25 157.39, 161.74 251.67 M161.74 32 C161.74 113.74, 160.99 196.23, 161.74 251.67 M161.74 251.67 C159.94 274.19, 151.34 283.33, 129.74 283.67 M161.74 251.67 C160.19 270.98, 152.39 284.85, 129.74 283.67 M129.74 283.67 C101.44 285, 74.15 283.43, 32 283.67 M129.74 283.67 C92.85 282.81, 57.67 283.66, 32 283.67 M32 283.67 C9.28 282.03, 0.19 273, 0 251.67 M32 283.67 C11.7 284.45, -1.14 272.79, 0 251.67 M0 251.67 C-0.51 164.82, 1.49 78.64, 0 32 M0 251.67 C-0.04 181.13, -0.75 109.99, 0 32 M0 32 C1.61 9.51, 10.93 -1.64, 32 0 M0 32 C1.85 10.35, 9.16 -1.91, 32 0" stroke="#1e1e1e" stroke-width="2" fill="none"></path></g><g stroke-linecap="round" transform="translate(382.00046718744727 288.9933878658404) rotate(0 80.45495053998309 18.66223079535689)"><path d="M9.33 0 C36.63 1.22, 67.57 0.43, 151.58 0 M9.33 0 C40.89 -1.87, 71.32 -1.51, 151.58 0 M151.58 0 C157.11 1.23, 162.04 4.81, 160.91 9.33 M151.58 0 C158.27 0.75, 162.38 4.4, 160.91 9.33 M160.91 9.33 C160.34 15.02, 161.1 22.03, 160.91 27.99 M160.91 9.33 C160.47 13.99, 161.26 18.87, 160.91 27.99 M160.91 27.99 C162.08 32.46, 158.45 38.55, 151.58 37.32 M160.91 27.99 C159.2 33.38, 159.95 35.28, 151.58 37.32 M151.58 37.32 C104.95 38.56, 60.26 35.07, 9.33 37.32 M151.58 37.32 C120.38 36.65, 87.41 35.87, 9.33 37.32 M9.33 37.32 C2.92 36.52, 1.23 36.18, 0 27.99 M9.33 37.32 C3.33 35.88, -1.04 32.89, 0 27.99 M0 27.99 C1.31 21.8, -1.46 13.95, 0 9.33 M0 27.99 C0.28 23.49, 0.64 19.52, 0 9.33 M0 9.33 C0.99 4.1, 3.54 -1.47, 9.33 0 M0 9.33 C0.32 4.17, 3.68 -0.38, 9.33 0" stroke="#1e1e1e" stroke-width="2" fill="none"></path></g><g transform="translate(437.5724433336212 291.4816853052213) rotate(0 26.850370618539387 15.023725676636587)"><text x="0" y="0" font-family="Virgil, Segoe UI Emoji" font-size="24.037961082618533px" fill="#1e1e1e" text-anchor="start" style="white-space: pre;" direction="ltr" dominant-baseline="text-before-edge">User</text></g><g stroke-linecap="round"><g transform="translate(382.00046718744727 361.9834460876807) rotate(0 78.38136934049896 0)"><path d="M-0.56 1.04 C25.28 1.12, 129.7 0.47, 155.73 0.1 M1.35 0.53 C27.49 0.86, 131.81 1.85, 157.9 1.69" stroke="#1e1e1e" stroke-width="2" fill="none"></path></g></g><mask></mask><g transform="translate(429.2781185356847 330.46501185552233) rotate(0 8.29656746510284 13.165009896108671)"><text x="0" y="0" font-family="Virgil, Segoe UI Emoji" font-size="21.064015833773876px" fill="#1e1e1e" text-anchor="start" style="white-space: pre;" direction="ltr" dominant-baseline="text-before-edge">id</text></g><g stroke-linecap="round"><g transform="translate(491.48555452020776 328.80614689593506) rotate(0 -0.4147162398968476 119.43827709028415)"><path d="M-0.06 -0.92 C-0.3 39.26, -0.6 199.84, -0.61 239.91 M-1.56 1.21 C-2 41.18, -1.62 198.95, -1.44 238.33" stroke="#1e1e1e" stroke-width="2" fill="none"></path></g></g><mask></mask><g stroke-linecap="round"><g transform="translate(382.22206404156816 403.7181174305696) rotate(0 78.38136934049896 0)"><path d="M-0.46 -1.11 C25.68 -1.05, 129.81 -1.14, 156.2 -0.76 M1.5 0.93 C27.49 1.21, 128.93 0.63, 154.96 0.39" stroke="#1e1e1e" stroke-width="2" fill="none"></path></g></g><mask></mask><g transform="translate(411.25220083434544 371.3702507186176) rotate(0 24.363267918326187 13.165009896108671)"><text x="0" y="0" font-family="Virgil, Segoe UI Emoji" font-size="21.064015833773876px" fill="#1e1e1e" text-anchor="start" style="white-space: pre;" direction="ltr" dominant-baseline="text-before-edge">name</text></g><g stroke-linecap="round"><g transform="translate(381.39263156177446 446.8486063798389) rotate(0 78.38136934049896 0)"><path d="M-1.2 1 C24.67 0.99, 130.01 0.8, 156.35 0.56 M0.37 0.48 C25.95 0.06, 129.23 -1.29, 155.19 -1.27" stroke="#1e1e1e" stroke-width="2" fill="none"></path></g></g><mask></mask><g transform="translate(396.32241619805984 412.84187470829954) rotate(0 40.58790175211675 13.165009896108671)"><text x="0" y="0" font-family="Virgil, Segoe UI Emoji" font-size="21.064015833773876px" fill="#1e1e1e" text-anchor="start" style="white-space: pre;" direction="ltr" dominant-baseline="text-before-edge">surname</text></g><g stroke-linecap="round"><g transform="translate(383.8809290011553 486.6613654099335) rotate(0 78.38136934049896 0)"><path d="M0.47 -0.93 C26.43 -1.08, 130.29 -0.71, 156.37 -0.64 M-0.74 1.19 C24.98 1.17, 129.05 0.67, 155.21 0.57" stroke="#1e1e1e" stroke-width="2" fill="none"></path></g></g><mask></mask><g transform="translate(409.59333587475805 455.14293117777527) rotate(0 24.52119623643921 13.165009896108671)"><text x="0" y="0" font-family="Virgil, Segoe UI Emoji" font-size="21.064015833773876px" fill="#1e1e1e" text-anchor="start" style="white-space: pre;" direction="ltr" dominant-baseline="text-before-edge">email</text></g><g stroke-linecap="round"><g transform="translate(383.8809290011553 527.3035569198219) rotate(0 78.38136934049896 0)"><path d="M-0.12 0.49 C25.97 0.73, 131.79 0.91, 157.76 0.98 M-1.65 -0.3 C24.28 -0.34, 130.72 -0.51, 157.33 -0.63" stroke="#1e1e1e" stroke-width="2" fill="none"></path></g></g><mask></mask><g transform="translate(391.3458213192981 495.7851226876635) rotate(0 46.4102454002375 13.165009896108671)"><text x="0" y="0" font-family="Virgil, Segoe UI Emoji" font-size="21.064015833773876px" fill="#1e1e1e" text-anchor="start" style="white-space: pre;" direction="ltr" dominant-baseline="text-before-edge">password</text></g><g transform="translate(417.88766067269455 536.4273141975518) rotate(0 13.276614937561021 13.1650098961087)"><text x="0" y="0" font-family="Virgil, Segoe UI Emoji" font-size="21.064015833773876px" fill="#1e1e1e" text-anchor="start" style="white-space: pre;" direction="ltr" dominant-baseline="text-before-edge">url</text></g><g transform="translate(507.2447716362868 336.27103921407786) rotate(0 8.45356935411553 8.294324797936383)"><text x="0" y="0" font-family="Virgil, Segoe UI Emoji" font-size="13.270919676698234px" fill="#1e1e1e" text-anchor="start" style="white-space: pre;" direction="ltr" dominant-baseline="text-before-edge">PK</text></g><g stroke-linecap="round" transform="translate(10 328.1900371520612) rotate(0 84.59222731124214 104.12535359277422)"><path d="M32 0 C56.07 -1.57, 80.14 -2.1, 137.18 0 M32 0 C67.8 1.64, 101.74 1.81, 137.18 0 M137.18 0 C160.38 0.07, 170.08 12.2, 169.18 32 M137.18 0 C160.42 -0.83, 168.23 12.54, 169.18 32 M169.18 32 C169.91 84.4, 167.19 138.01, 169.18 176.25 M169.18 32 C169.61 62.57, 169.15 93.56, 169.18 176.25 M169.18 176.25 C170.66 196.39, 156.65 206.71, 137.18 208.25 M169.18 176.25 C168.98 195.29, 158.8 208.12, 137.18 208.25 M137.18 208.25 C100.73 209.5, 66.56 209.21, 32 208.25 M137.18 208.25 C112.47 207.87, 88.85 207.75, 32 208.25 M32 208.25 C11.71 206.98, -1.36 196.87, 0 176.25 M32 208.25 C12.25 208.39, -0.07 198.15, 0 176.25 M0 176.25 C0.23 122.63, -0.83 68.64, 0 32 M0 176.25 C0.22 135.48, 0.53 96.47, 0 32 M0 32 C-1.26 11.15, 9.27 -0.85, 32 0 M0 32 C-0.03 9.33, 9.28 0.35, 32 0" stroke="#1e1e1e" stroke-width="2" fill="none"></path></g><g stroke-linecap="round" transform="translate(12.60283776342294 329.9252623276765) rotate(0 84.1584210173383 19.521283225671255)"><path d="M9.76 0 C56.49 -0.88, 105.41 -0.44, 158.56 0 M9.76 0 C42.59 -0.23, 76.93 -1.2, 158.56 0 M158.56 0 C165.96 1.53, 169.97 2.53, 168.32 9.76 M158.56 0 C164.11 1.88, 169.71 1.58, 168.32 9.76 M168.32 9.76 C167.57 18.6, 166.86 24.18, 168.32 29.28 M168.32 9.76 C167.82 16.53, 169.03 24.6, 168.32 29.28 M168.32 29.28 C166.45 34.25, 164.89 37.05, 158.56 39.04 M168.32 29.28 C168.6 35.66, 165.93 39.31, 158.56 39.04 M158.56 39.04 C105.57 39.86, 50.36 39.95, 9.76 39.04 M158.56 39.04 C126.21 40.16, 94.66 39.15, 9.76 39.04 M9.76 39.04 C1.89 38.33, 1.38 35.91, 0 29.28 M9.76 39.04 C3.18 39.61, 1.81 35.11, 0 29.28 M0 29.28 C-1.2 26.05, -0.38 18.3, 0 9.76 M0 29.28 C-0.27 26.02, -0.47 21.34, 0 9.76 M0 9.76 C-1.4 2.4, 3.23 -1.16, 9.76 0 M0 9.76 C-1.39 3.61, 1.59 0.15, 9.76 0" stroke="#1e1e1e" stroke-width="2" fill="none"></path></g><g transform="translate(37.57789309205191 337.46084284277845) rotate(0 61.17393117073516 11.248188464110285)"><text x="0" y="0" font-family="Virgil, Segoe UI Emoji" font-size="17.997101542576452px" fill="#1e1e1e" text-anchor="start" style="white-space: pre;" direction="ltr" dominant-baseline="text-before-edge">FriendRequest</text></g><g stroke-linecap="round"><g transform="translate(12.60283776342294 406.27517005474624) rotate(0 81.98938954781931 0)"><path d="M-0.87 -0.93 C26.8 -0.83, 137.5 0.64, 164.92 0.99 M0.87 1.2 C28.57 0.94, 137.49 -0.32, 164.46 -0.61" stroke="#1e1e1e" stroke-width="2" fill="none"></path></g></g><mask></mask><g transform="translate(62.056755268456754 373.30589171805707) rotate(0 8.678471778810945 13.771016427180967)"><text x="0" y="0" font-family="Virgil, Segoe UI Emoji" font-size="22.033626283489557px" fill="#1e1e1e" text-anchor="start" style="white-space: pre;" direction="ltr" dominant-baseline="text-before-edge">id</text></g><g stroke-linecap="round"><g transform="translate(127.12769935402764 371.5706665424418) rotate(0 -1.5397162669619888 82.35867868155594)"><path d="M-0.34 1.2 C-0.83 28.49, -1.6 137.35, -1.96 164.76 M1.68 0.78 C1.05 28.2, -1.54 139.16, -2.32 166.32" stroke="#1e1e1e" stroke-width="2" fill="none"></path></g></g><mask></mask><g stroke-linecap="round"><g transform="translate(12.834635076329505 449.93095529010725) rotate(0 81.98938954781931 0)"><path d="M1.12 0.04 C28.59 0, 137.21 1, 164.52 0.92 M0.24 -0.98 C27.64 -0.85, 136.44 -0.99, 163.85 -0.72" stroke="#1e1e1e" stroke-width="2" fill="none"></path></g></g><mask></mask><g transform="translate(29.93015597289775 411.6704244733777) rotate(0 37.997848985319706 13.771016427180967)"><text x="0" y="0" font-family="Virgil, Segoe UI Emoji" font-size="22.033626283489557px" fill="#1e1e1e" text-anchor="start" style="white-space: pre;" direction="ltr" dominant-baseline="text-before-edge">status</text></g><g stroke-linecap="round"><g transform="translate(11.967022488521934 495.0468098561031) rotate(0 81.98938954781931 0)"><path d="M0.99 -0.43 C28.15 -0.42, 136.2 1.05, 163.48 0.98 M0.06 -1.71 C26.96 -2.1, 134.9 -0.91, 162.27 -0.63" stroke="#1e1e1e" stroke-width="2" fill="none"></path></g></g><mask></mask><g transform="translate(17.630859311535346 459.4746937559911) rotate(0 49.84322933602573 11.55919648106456)"><text x="0" y="0" font-family="Virgil, Segoe UI Emoji" font-size="18.494714369703303px" fill="#1e1e1e" text-anchor="start" style="white-space: pre;" direction="ltr" dominant-baseline="text-before-edge">userSendId</text></g><g transform="translate(12.712191174467875 503.72293573417915) rotate(0 51.474180606657114 9.514909435325677)"><text x="0" y="0" font-family="Virgil, Segoe UI Emoji" font-size="15.223855096521108px" fill="#1e1e1e" text-anchor="start" style="white-space: pre;" direction="ltr" dominant-baseline="text-before-edge">userReceiveId</text></g><g transform="translate(143.61233852237217 379.3791798327104) rotate(0 8.842700716711818 8.676125878076107)"><text x="0" y="0" font-family="Virgil, Segoe UI Emoji" font-size="13.881801404921784px" fill="#1e1e1e" text-anchor="start" style="white-space: pre;" direction="ltr" dominant-baseline="text-before-edge">PK</text></g><g transform="translate(144.22982297993735 464.0834557668272) rotate(0 7.876287588149751 8.294324797936383)"><text x="0" y="0" font-family="Virgil, Segoe UI Emoji" font-size="13.270919676698234px" fill="#1e1e1e" text-anchor="start" style="white-space: pre;" direction="ltr" dominant-baseline="text-before-edge">FK</text></g><g transform="translate(144.0949052031948 506.6609897295674) rotate(0 7.876287588149751 8.294324797936383)"><text x="0" y="0" font-family="Virgil, Segoe UI Emoji" font-size="13.270919676698234px" fill="#1e1e1e" text-anchor="start" style="white-space: pre;" direction="ltr" dominant-baseline="text-before-edge">FK</text></g><g stroke-linecap="round" transform="translate(943.4979615274361 375.28213977195014) rotate(0 84.59222731124214 60.99486464350497)"><path d="M30.5 0 C65.21 0.23, 96.6 -1.62, 138.69 0 M30.5 0 C61.6 -0.53, 93.18 -1.14, 138.69 0 M138.69 0 C158.28 -0.55, 167.43 10.61, 169.18 30.5 M138.69 0 C157.46 -0.76, 167.74 11.6, 169.18 30.5 M169.18 30.5 C170.73 55.07, 167.19 78.42, 169.18 91.49 M169.18 30.5 C170 48.99, 168.8 65.42, 169.18 91.49 M169.18 91.49 C169.31 110.33, 158.63 123.96, 138.69 121.99 M169.18 91.49 C170.9 110.22, 160.75 124.12, 138.69 121.99 M138.69 121.99 C99.37 119.26, 55.79 119.45, 30.5 121.99 M138.69 121.99 C115.96 120.9, 94.96 121.8, 30.5 121.99 M30.5 121.99 C10.28 123.09, -1.61 112.35, 0 91.49 M30.5 121.99 C12.21 121.15, -0.23 111.55, 0 91.49 M0 91.49 C1.81 75.57, 2.14 59.02, 0 30.5 M0 91.49 C0.61 72.6, -1.04 51.89, 0 30.5 M0 30.5 C-0.34 8.36, 11.5 -1.7, 30.5 0 M0 30.5 C-2.28 10.49, 9.39 -2.02, 30.5 0" stroke="#1e1e1e" stroke-width="2" fill="none"></path></g><g stroke-linecap="round" transform="translate(946.1007992908591 377.0173649475654) rotate(0 84.15842101733836 19.521283225671255)"><path d="M9.76 0 C67.69 -1.56, 124.1 -2.35, 158.56 0 M9.76 0 C64.59 -0.71, 119.27 -0.6, 158.56 0 M158.56 0 C163.31 0.45, 166.96 2.59, 168.32 9.76 M158.56 0 C163.62 1.44, 170.59 2.66, 168.32 9.76 M168.32 9.76 C166.69 14.66, 168.31 22, 168.32 29.28 M168.32 9.76 C167.72 13.67, 168.47 17.98, 168.32 29.28 M168.32 29.28 C167.92 37.76, 166.55 37.65, 158.56 39.04 M168.32 29.28 C170.05 37.92, 166.8 38.34, 158.56 39.04 M158.56 39.04 C125.3 36.11, 93.38 38.9, 9.76 39.04 M158.56 39.04 C121.9 38.53, 83.66 38.74, 9.76 39.04 M9.76 39.04 C1.64 39.57, 1.77 35.06, 0 29.28 M9.76 39.04 C3.02 38.77, -1.13 34.34, 0 29.28 M0 29.28 C1.57 19.8, 0.34 14.9, 0 9.76 M0 29.28 C-0.9 21.98, -0.34 13.78, 0 9.76 M0 9.76 C1.34 1.55, 1.27 0.28, 9.76 0 M0 9.76 C-0.78 1.23, 4.23 -1.52, 9.76 0" stroke="#1e1e1e" stroke-width="2" fill="none"></path></g><g transform="translate(1005.3590637842918 384.55294546266725) rotate(0 25.489451332571434 11.248188464110285)"><text x="0" y="0" font-family="Virgil, Segoe UI Emoji" font-size="17.997101542576452px" fill="#1e1e1e" text-anchor="start" style="white-space: pre;" direction="ltr" dominant-baseline="text-before-edge">Group</text></g><g stroke-linecap="round"><g transform="translate(946.1007992908591 453.36727267463516) rotate(0 81.98938954781931 0)"><path d="M-0.9 0.83 C26.45 0.89, 136.17 0.48, 163.63 0.26 M0.84 0.22 C28.02 -0.09, 135.47 -1.79, 162.5 -1.73" stroke="#1e1e1e" stroke-width="2" fill="none"></path></g></g><mask></mask><g transform="translate(995.5547167958929 420.3979943379459) rotate(0 8.678471778810945 13.771016427180967)"><text x="0" y="0" font-family="Virgil, Segoe UI Emoji" font-size="22.033626283489557px" fill="#1e1e1e" text-anchor="start" style="white-space: pre;" direction="ltr" dominant-baseline="text-before-edge">id</text></g><g stroke-linecap="round"><g transform="translate(1060.6256608814633 418.66276916233073) rotate(0 -0.43380629390389913 38.67523474575759)"><path d="M-0.13 -0.47 C-0.29 12.33, -1.01 64.01, -1.31 77.02 M-1.66 -1.76 C-1.98 11.19, -2.84 64.91, -2.49 78.39" stroke="#1e1e1e" stroke-width="2" fill="none"></path></g></g><mask></mask><g transform="translate(975.5931272039737 460.9743470393829) rotate(0 25.47870880497055 13.771016427180967)"><text x="0" y="0" font-family="Virgil, Segoe UI Emoji" font-size="22.033626283489557px" fill="#1e1e1e" text-anchor="start" style="white-space: pre;" direction="ltr" dominant-baseline="text-before-edge">name</text></g><g transform="translate(1077.1103000498083 426.4712824525993) rotate(0 8.842700716711875 8.676125878076107)"><text x="0" y="0" font-family="Virgil, Segoe UI Emoji" font-size="13.881801404921784px" fill="#1e1e1e" text-anchor="start" style="white-space: pre;" direction="ltr" dominant-baseline="text-before-edge">PK</text></g><g stroke-linecap="round"><g transform="translate(183.72741655699213 476.68125737388755) rotate(0 91.23757277730033 -81.0875242843872)"><path d="M-0.32 -1.02 C9.05 0.26, 47.16 35.88, 55.16 7.85 C63.16 -20.18, 26.6 -143.67, 47.69 -169.21 C68.77 -194.75, 159.31 -149.15, 181.65 -145.39 M1.71 1.06 C11.01 2, 46.08 34.44, 54.14 6.27 C62.2 -21.91, 28.85 -142.94, 50.07 -167.99 C71.29 -193.05, 159.23 -147.63, 181.47 -144.07" stroke="#1e1e1e" stroke-width="2" fill="none"></path></g><g transform="translate(183.72741655699213 476.68125737388755) rotate(0 91.23757277730033 -81.0875242843872)"><path d="M156.47 -143.44 C159.96 -143.74, 168.54 -145.26, 181.47 -144.07 M156.47 -143.44 C162.92 -144.39, 170.9 -143.28, 181.47 -144.07" stroke="#1e1e1e" stroke-width="2" fill="none"></path></g><g transform="translate(183.72741655699213 476.68125737388755) rotate(0 91.23757277730033 -81.0875242843872)"><path d="M161.92 -159.65 C164.29 -156.6, 171.75 -154.77, 181.47 -144.07 M161.92 -159.65 C166.71 -155.99, 173.14 -150.28, 181.47 -144.07" stroke="#1e1e1e" stroke-width="2" fill="none"></path></g></g><mask></mask><g stroke-linecap="round"><g transform="translate(183.72741655699213 520.4014075370951) rotate(0 91.23757277730033 -89.77510905698747)"><path d="M0.38 -0.53 C18.91 -1.02, 99.2 26.21, 111.75 -3.66 C124.29 -33.53, 64.04 -152.18, 75.64 -179.77 C87.24 -207.36, 163.57 -170.92, 181.36 -169.18 M-0.87 1.81 C17.95 1.08, 101.24 24.89, 113.9 -5.17 C126.57 -35.24, 63.92 -151.46, 75.11 -178.57 C86.29 -205.68, 163.4 -169.49, 181.02 -167.86" stroke="#1e1e1e" stroke-width="2" fill="none"></path></g><g transform="translate(183.72741655699213 520.4014075370951) rotate(0 91.23757277730033 -89.77510905698747)"><path d="M156.08 -166.09 C163.96 -168.55, 175.53 -166.68, 181.02 -167.86 M156.08 -166.09 C163.01 -166.46, 170.4 -166.26, 181.02 -167.86" stroke="#1e1e1e" stroke-width="2" fill="none"></path></g><g transform="translate(183.72741655699213 520.4014075370951) rotate(0 91.23757277730033 -89.77510905698747)"><path d="M160.78 -182.54 C166.91 -179.21, 176.83 -171.57, 181.02 -167.86 M160.78 -182.54 C166.24 -178.26, 172.3 -173.43, 181.02 -167.86" stroke="#1e1e1e" stroke-width="2" fill="none"></path></g></g><mask></mask><g stroke-linecap="round" transform="translate(648.2199987209004 373.8790229312899) rotate(0 84.59222731124214 60.44190965697587)"><path d="M30.22 0 C61.17 1.82, 88.79 -0.43, 138.96 0 M30.22 0 C56.92 1.05, 82.47 0.6, 138.96 0 M138.96 0 C157.43 1.18, 169.45 8.51, 169.18 30.22 M138.96 0 C157.9 2.22, 168.66 10.81, 169.18 30.22 M169.18 30.22 C168.41 54.61, 169.32 78.61, 169.18 90.66 M169.18 30.22 C169.07 53.25, 169.07 75.06, 169.18 90.66 M169.18 90.66 C168.99 112.04, 159.02 121.08, 138.96 120.88 M169.18 90.66 C171.24 109.21, 157.24 120.23, 138.96 120.88 M138.96 120.88 C98.95 119.08, 59.82 119.68, 30.22 120.88 M138.96 120.88 C113.74 120.75, 88.27 121.17, 30.22 120.88 M30.22 120.88 C11.82 122.01, 0.01 108.98, 0 90.66 M30.22 120.88 C9.8 119.86, 0.44 112.18, 0 90.66 M0 90.66 C1.1 68.38, -0.62 41.54, 0 30.22 M0 90.66 C0.02 74.94, 0.19 59.03, 0 30.22 M0 30.22 C-1.63 8.71, 12.01 0.96, 30.22 0 M0 30.22 C1.09 10.42, 12.25 -1.72, 30.22 0" stroke="#1e1e1e" stroke-width="2" fill="none"></path></g><g stroke-linecap="round" transform="translate(650.8228364843236 375.61424810690517) rotate(0 84.15842101733836 19.521283225671255)"><path d="M9.76 0 C46.49 -1.9, 85.15 -2.44, 158.56 0 M9.76 0 C39.74 -0.44, 68.65 0.63, 158.56 0 M158.56 0 C165.33 -1.57, 167.27 5.18, 168.32 9.76 M158.56 0 C164.54 0.74, 170.29 1.2, 168.32 9.76 M168.32 9.76 C168.95 17.15, 169.71 22.47, 168.32 29.28 M168.32 9.76 C167.69 15.9, 168.12 23.08, 168.32 29.28 M168.32 29.28 C168.22 35.98, 166.85 37.65, 158.56 39.04 M168.32 29.28 C166.45 35.13, 166.39 40.41, 158.56 39.04 M158.56 39.04 C124.88 38.07, 92.65 38.11, 9.76 39.04 M158.56 39.04 C113.25 39, 68.76 39.33, 9.76 39.04 M9.76 39.04 C3.26 37.21, -0.24 34.9, 0 29.28 M9.76 39.04 C3.69 40.41, 2.11 35.98, 0 29.28 M0 29.28 C-0.67 20.82, -0.84 15.58, 0 9.76 M0 29.28 C0.13 24.83, -0.79 19.53, 0 9.76 M0 9.76 C1.94 4.21, 4.21 0.3, 9.76 0 M0 9.76 C2.18 1.53, 3.18 0.98, 9.76 0" stroke="#1e1e1e" stroke-width="2" fill="none"></path></g><g transform="translate(691.2806314357668 382.0439186489489) rotate(0 45.582402531031335 11.248188464110285)"><text x="0" y="0" font-family="Virgil, Segoe UI Emoji" font-size="17.997101542576452px" fill="#1e1e1e" text-anchor="start" style="white-space: pre;" direction="ltr" dominant-baseline="text-before-edge">UserGroup</text></g><g stroke-linecap="round"><g transform="translate(650.8228364843236 451.9641558339749) rotate(0 81.98938954781931 0)"><path d="M-0.86 -1.19 C26.69 -1.08, 137.23 -0.13, 164.73 -0.03 M0.89 0.8 C28.39 1.18, 137.09 1.55, 164.18 1.49" stroke="#1e1e1e" stroke-width="2" fill="none"></path></g></g><mask></mask><g transform="translate(674.840824609019 420.1007874703439) rotate(0 35.256195968034945 13.771016427180967)"><text x="0" y="0" font-family="Virgil, Segoe UI Emoji" font-size="22.033626283489557px" fill="#1e1e1e" text-anchor="start" style="white-space: pre;" direction="ltr" dominant-baseline="text-before-edge">userId</text></g><g stroke-linecap="round"><g transform="translate(765.347698074928 417.2596523216705) rotate(0 0.6721036791543611 38.67523474575759)"><path d="M0.14 -0.57 C0.07 12.44, 0.11 65.23, 0.33 78.06 M-1.25 1.74 C-1.02 14.42, 2.17 63.73, 2.51 76.31" stroke="#1e1e1e" stroke-width="2" fill="none"></path></g></g><mask></mask><g transform="translate(668.1501546937983 460.67714017178093) rotate(0 40.29908874569435 13.771016427180967)"><text x="0" y="0" font-family="Virgil, Segoe UI Emoji" font-size="22.033626283489557px" fill="#1e1e1e" text-anchor="start" style="white-space: pre;" direction="ltr" dominant-baseline="text-before-edge">groupId</text></g><g transform="translate(781.8323372432725 425.068165611939) rotate(0 8.842700716711875 8.676125878076107)"><text x="0" y="0" font-family="Virgil, Segoe UI Emoji" font-size="13.881801404921784px" fill="#1e1e1e" text-anchor="start" style="white-space: pre;" direction="ltr" dominant-baseline="text-before-edge">PK</text></g><g transform="translate(784.2411109953406 468.2827068431186) rotate(0 8.842700716711875 8.676125878076107)"><text x="0" y="0" font-family="Virgil, Segoe UI Emoji" font-size="13.881801404921784px" fill="#1e1e1e" text-anchor="start" style="white-space: pre;" direction="ltr" dominant-baseline="text-before-edge">PK</text></g><g stroke-linecap="round"><g transform="translate(548.6777076661934 358.93190603503785) rotate(0 45.34230889538571 37.4482188684438)"><path d="M1.15 -0.7 C5.99 11.63, 14.83 61.51, 29.64 73.77 C44.45 86.04, 79.9 73.14, 90.03 72.91 M0.29 1.55 C4.91 14, 13.81 62.59, 28.58 74.72 C43.35 86.86, 78.59 74.58, 88.92 74.35" stroke="#1e1e1e" stroke-width="2" fill="none"></path></g><g transform="translate(548.6777076661934 358.93190603503785) rotate(0 45.34230889538571 37.4482188684438)"><path d="M67.16 86.66 C73.56 81.81, 80.41 76.81, 88.92 74.35 M67.16 86.66 C73.45 83.47, 80.43 78.13, 88.92 74.35" stroke="#1e1e1e" stroke-width="2" fill="none"></path></g><g transform="translate(548.6777076661934 358.93190603503785) rotate(0 45.34230889538571 37.4482188684438)"><path d="M64.33 69.79 C71.69 70.77, 79.51 71.62, 88.92 74.35 M64.33 69.79 C71.49 71.99, 79.37 72.03, 88.92 74.35" stroke="#1e1e1e" stroke-width="2" fill="none"></path></g></g><mask></mask><g stroke-linecap="round"><g transform="translate(933.7842235837664 436.04016371804187) rotate(0 -53.083678706792966 18.2475145554601)"><path d="M-0.32 0.67 C-6.79 0.28, -27.77 -8.49, -38.39 -2.31 C-49 3.86, -52.68 31.37, -64.04 37.72 C-75.39 44.06, -99.56 35.97, -106.52 35.78 M1.71 -0.03 C-4.93 -0.22, -28.6 -7.25, -39.17 -0.83 C-49.73 5.6, -50.45 32.29, -61.67 38.51 C-72.88 44.74, -98.9 36.76, -106.45 36.51" stroke="#1e1e1e" stroke-width="2" fill="none"></path></g><g transform="translate(933.7842235837664 436.04016371804187) rotate(0 -53.083678706792966 18.2475145554601)"><path d="M-85.26 32.38 C-91.29 34.25, -99.72 33.45, -106.45 36.51 M-85.26 32.38 C-89.52 33.24, -93.64 34.54, -106.45 36.51" stroke="#1e1e1e" stroke-width="2" fill="none"></path></g><g transform="translate(933.7842235837664 436.04016371804187) rotate(0 -53.083678706792966 18.2475145554601)"><path d="M-87.56 46.97 C-92.82 43.93, -100.47 38.2, -106.45 36.51 M-87.56 46.97 C-91.28 44.67, -94.9 42.8, -106.45 36.51" stroke="#1e1e1e" stroke-width="2" fill="none"></path></g></g><mask></mask><g stroke-linecap="round" transform="translate(950.7728577467727 10) rotate(0 84.59222731124214 126.94190965697582)"><path d="M32 0 C67.54 1.72, 103.75 -0.73, 137.18 0 M32 0 C70.77 -0.06, 107.96 -0.2, 137.18 0 M137.18 0 C157.52 1.77, 169.94 10.13, 169.18 32 M137.18 0 C160.37 -0.73, 170.02 12.59, 169.18 32 M169.18 32 C169.05 93.57, 168.07 154.95, 169.18 221.88 M169.18 32 C170.66 96.79, 171.13 162.87, 169.18 221.88 M169.18 221.88 C170.77 243.14, 158.1 252.15, 137.18 253.88 M169.18 221.88 C171.36 241.98, 156.55 252.96, 137.18 253.88 M137.18 253.88 C97.8 253.82, 55.63 252.82, 32 253.88 M137.18 253.88 C111.06 255.05, 84.43 253.81, 32 253.88 M32 253.88 C9.53 255.32, 1.01 243.81, 0 221.88 M32 253.88 C9.47 253.65, -0.21 245.21, 0 221.88 M0 221.88 C-2.01 166.25, -0.56 109.2, 0 32 M0 221.88 C-1.64 159.71, -1.73 96.9, 0 32 M0 32 C-0.81 11.19, 11.06 1.61, 32 0 M0 32 C-1.43 10.12, 9.96 0.77, 32 0" stroke="#1e1e1e" stroke-width="2" fill="none"></path></g><g stroke-linecap="round" transform="translate(953.3756955101961 11.735225175615255) rotate(0 84.15842101733836 19.52128322567126)"><path d="M9.76 0 C44.25 -2.2, 79.28 -1.1, 158.56 0 M9.76 0 C65.81 -0.53, 123.25 -0.32, 158.56 0 M158.56 0 C165.82 -0.54, 169.93 2.62, 168.32 9.76 M158.56 0 C165.9 1.92, 168.74 1.63, 168.32 9.76 M168.32 9.76 C168.65 15.73, 169.28 19.25, 168.32 29.28 M168.32 9.76 C168.88 15.65, 169.11 20.72, 168.32 29.28 M168.32 29.28 C167.9 34.05, 166.96 37.97, 158.56 39.04 M168.32 29.28 C166.35 34.86, 167.07 40.56, 158.56 39.04 M158.56 39.04 C124.4 39.23, 89.49 38.7, 9.76 39.04 M158.56 39.04 C106.38 39.33, 53.14 40.68, 9.76 39.04 M9.76 39.04 C4.26 39.63, -1.04 35.58, 0 29.28 M9.76 39.04 C3.04 41.04, -0.1 36.95, 0 29.28 M0 29.28 C0.49 22.01, 0.67 16.96, 0 9.76 M0 29.28 C-0.33 21.56, -0.33 14.19, 0 9.76 M0 9.76 C0.39 4.86, 2.01 -0.48, 9.76 0 M0 9.76 C-0.71 4.03, 4.01 0.36, 9.76 0" stroke="#1e1e1e" stroke-width="2" fill="none"></path></g><g transform="translate(1001.8334904616394 19.164895717658965) rotate(0 36.99388885498047 11.248188464110282)"><text x="0" y="0" font-family="Virgil, Segoe UI Emoji" font-size="17.997101542576452px" fill="#1e1e1e" text-anchor="start" style="white-space: pre;" direction="ltr" dominant-baseline="text-before-edge">Message</text></g><g stroke-linecap="round"><g transform="translate(953.3756955101961 88.08513290268502) rotate(0 81.98938954781931 0)"><path d="M-0.22 1 C27.32 1.03, 137.18 1, 164.36 0.97 M-1.8 0.47 C25.69 0.11, 135.79 -0.38, 163.62 -0.64" stroke="#1e1e1e" stroke-width="2" fill="none"></path></g></g><mask></mask><g transform="translate(977.3936836348915 56.22176453905399) rotate(0 8.67413330078125 13.771016427180975)"><text x="0" y="0" font-family="Virgil, Segoe UI Emoji" font-size="22.033626283489557px" fill="#1e1e1e" text-anchor="start" style="white-space: pre;" direction="ltr" dominant-baseline="text-before-edge">id</text></g><g stroke-linecap="round"><g transform="translate(1067.9005571008006 53.38062939038059) rotate(0 0.6721036791543611 105.17523474575758)"><path d="M-1.13 0.8 C-1.07 35.88, 0.26 176.54, 0.75 211.41 M0.48 0.18 C0.91 34.86, 3.01 174.68, 3.14 209.85" stroke="#1e1e1e" stroke-width="2" fill="none"></path></g></g><mask></mask><g transform="translate(970.703013719671 96.79811724049091) rotate(0 43.821983337402344 13.771016427180975)"><text x="0" y="0" font-family="Virgil, Segoe UI Emoji" font-size="22.033626283489557px" fill="#1e1e1e" text-anchor="start" style="white-space: pre;" direction="ltr" dominant-baseline="text-before-edge">message</text></g><g transform="translate(1084.3851962691451 61.18914268064907) rotate(0 8.842700716711875 8.676125878076114)"><text x="0" y="0" font-family="Virgil, Segoe UI Emoji" font-size="13.881801404921784px" fill="#1e1e1e" text-anchor="start" style="white-space: pre;" direction="ltr" dominant-baseline="text-before-edge">PK</text></g><g stroke-linecap="round"><g transform="translate(954.6380713693096 135.4030154115434) rotate(0 81.98938954781931 0)"><path d="M0.98 -0.28 C28.32 -0.2, 137.93 -0.76, 164.91 -0.66 M0.04 -1.47 C27.22 -1.14, 136.92 -0.01, 164.46 0.53" stroke="#1e1e1e" stroke-width="2" fill="none"></path></g></g><mask></mask><g transform="translate(971.9653895787841 144.1159997493493) rotate(0 40.28849792480469 13.771016427180967)"><text x="0" y="0" font-family="Virgil, Segoe UI Emoji" font-size="22.033626283489557px" fill="#1e1e1e" text-anchor="start" style="white-space: pre;" direction="ltr" dominant-baseline="text-before-edge">groupId</text></g><g stroke-linecap="round"><g transform="translate(953.6380713693096 181.4030154115434) rotate(0 81.98938954781931 0)"><path d="M-0.21 0.58 C27.11 0.71, 137.46 1.25, 164.95 1.08 M-1.78 -0.16 C25.37 -0.37, 136.83 -0.62, 164.51 -0.47" stroke="#1e1e1e" stroke-width="2" fill="none"></path></g></g><mask></mask><g transform="translate(965.9653895787841 191.1159997493493) rotate(0 44.20954312022866 10.255379452231054)"><text x="0" y="0" font-family="Virgil, Segoe UI Emoji" font-size="16.408607123569684px" fill="#1e1e1e" text-anchor="start" style="white-space: pre;" direction="ltr" dominant-baseline="text-before-edge">userSendId</text></g><g stroke-linecap="round"><g transform="translate(953.3308737311548 222.33978275910638) rotate(0 81.98938954781931 0)"><path d="M0.99 0.38 C28.55 0.29, 137.36 -0.54, 164.69 -0.75 M0.05 -0.46 C27.57 -0.4, 136.67 0.32, 164.11 0.4" stroke="#1e1e1e" stroke-width="2" fill="none"></path></g></g><mask></mask><g transform="translate(960.6581919406293 232.05276709691228) rotate(0 50.13861866639718 9.271016427180982)"><text x="0" y="0" font-family="Virgil, Segoe UI Emoji" font-size="14.833626283489561px" fill="#1e1e1e" text-anchor="start" style="white-space: pre;" direction="ltr" dominant-baseline="text-before-edge">userReceiveId</text></g><g transform="translate(1087.3191492868755 148.22862429609606) rotate(0 7.876287588149808 8.294324797936397)"><text x="0" y="0" font-family="Virgil, Segoe UI Emoji" font-size="13.270919676698234px" fill="#1e1e1e" text-anchor="start" style="white-space: pre;" direction="ltr" dominant-baseline="text-before-edge">FK</text></g><g transform="translate(1088.3191492868755 192.22862429609606) rotate(0 7.876287588149808 8.294324797936397)"><text x="0" y="0" font-family="Virgil, Segoe UI Emoji" font-size="13.270919676698234px" fill="#1e1e1e" text-anchor="start" style="white-space: pre;" direction="ltr" dominant-baseline="text-before-edge">FK</text></g><g transform="translate(1086.3191492868755 232.22862429609611) rotate(0 7.876287588149808 8.294324797936397)"><text x="0" y="0" font-family="Virgil, Segoe UI Emoji" font-size="13.270919676698234px" fill="#1e1e1e" text-anchor="start" style="white-space: pre;" direction="ltr" dominant-baseline="text-before-edge">FK</text></g><g stroke-linecap="round"><g transform="translate(1129.5530988375344 174.0173039802242) rotate(0 54.5 133.33307651560602)"><path d="M0.63 0.24 C18.48 19.57, 88.71 71.31, 107.92 115.79 C127.12 160.28, 134.95 243.12, 115.87 267.15 C96.78 291.18, 13.89 261.24, -6.61 259.96 M-0.49 -0.69 C17.21 18.36, 88.11 69.97, 107.45 114.26 C126.79 158.55, 134.58 240.57, 115.56 265.06 C96.53 289.55, 13.5 262.1, -6.68 261.22" stroke="#1e1e1e" stroke-width="2" fill="none"></path></g><g transform="translate(1129.5530988375344 174.0173039802242) rotate(0 54.5 133.33307651560602)"><path d="M17.98 257.07 C9.28 260.26, 1.68 261.7, -6.68 261.22 M17.98 257.07 C8.63 258.38, 1.53 259.62, -6.68 261.22" stroke="#1e1e1e" stroke-width="2" fill="none"></path></g><g transform="translate(1129.5530988375344 174.0173039802242) rotate(0 54.5 133.33307651560602)"><path d="M14.87 273.89 C7.35 270.86, 0.9 266.11, -6.68 261.22 M14.87 273.89 C6.67 269.47, 0.63 264.99, -6.68 261.22" stroke="#1e1e1e" stroke-width="2" fill="none"></path></g></g><mask></mask><g stroke-linecap="round"><g transform="translate(940.5094923178352 198.68345701143664) rotate(0 -190.5 32.000000000000014)"><path d="M-0.04 1.07 C-40.65 -9.4, -190.6 -78.31, -243.17 -63.45 C-295.74 -48.59, -292.65 58.43, -315.44 90.21 C-338.23 121.99, -369.01 120.98, -379.92 127.22 M-1.52 0.58 C-42.26 -9.66, -191.2 -77.32, -243.69 -62.15 C-296.17 -46.97, -293.26 59.87, -316.44 91.63 C-339.62 123.4, -371.78 122.32, -382.76 128.44" stroke="#1e1e1e" stroke-width="2" fill="none"></path></g><g transform="translate(940.5094923178352 198.68345701143664) rotate(0 -190.5 32.000000000000014)"><path d="M-362.91 113.24 C-367.99 119.8, -377.28 122.86, -382.76 128.44 M-362.91 113.24 C-369.01 118.62, -375.82 123.29, -382.76 128.44" stroke="#1e1e1e" stroke-width="2" fill="none"></path></g><g transform="translate(940.5094923178352 198.68345701143664) rotate(0 -190.5 32.000000000000014)"><path d="M-357.79 129.56 C-364.52 130.55, -375.56 128.05, -382.76 128.44 M-357.79 129.56 C-365.66 129.77, -374.09 129.27, -382.76 128.44" stroke="#1e1e1e" stroke-width="2" fill="none"></path></g></g><mask></mask><g stroke-linecap="round"><g transform="translate(931.5094923178352 240.68345701143664) rotate(0 -184.5 21.500000000000014)"><path d="M0.11 -0.38 C-32.11 -10.95, -148.16 -76.5, -193.65 -63.1 C-239.13 -49.7, -243.65 51.65, -272.81 80.02 C-301.98 108.38, -352.47 102.79, -368.65 107.11 M-1.29 -1.63 C-33.09 -12.03, -146.43 -75.44, -191.27 -61.61 C-236.12 -47.78, -240.86 53.55, -270.35 81.34 C-299.84 109.13, -351.91 100.98, -368.22 105.13" stroke="#1e1e1e" stroke-width="2" fill="none"></path></g><g transform="translate(931.5094923178352 240.68345701143664) rotate(0 -184.5 21.500000000000014)"><path d="M-345.44 94.84 C-352.31 96.62, -358.1 99.16, -368.22 105.13 M-345.44 94.84 C-353.04 98.09, -359.78 101.33, -368.22 105.13" stroke="#1e1e1e" stroke-width="2" fill="none"></path></g><g transform="translate(931.5094923178352 240.68345701143664) rotate(0 -184.5 21.500000000000014)"><path d="M-344.15 111.89 C-351.43 108.98, -357.57 106.84, -368.22 105.13 M-344.15 111.89 C-352.19 110.01, -359.32 108.11, -368.22 105.13" stroke="#1e1e1e" stroke-width="2" fill="none"></path></g></g><mask></mask></svg>